<svg xmlns="http://www.w3.org/2000/svg" xmlns:xlink="http://www.w3.org/1999/xlink" viewBox="0 0 43.52 45.95"><defs><style>.cls-1{isolation:isolate;}.cls-2{fill:url(#linear-gradient);}.cls-3,.cls-7{fill:#fff;opacity:0.7;mix-blend-mode:soft-light;}.cls-3{fill-rule:evenodd;}.cls-4{fill:#2f170e;opacity:0.3;}.cls-5{fill:url(#linear-gradient-2);}.cls-6{fill:url(#linear-gradient-3);}</style><linearGradient id="linear-gradient" x1="25.36" y1="46.95" x2="25.36" y2="1" gradientUnits="userSpaceOnUse"><stop offset="0" stop-color="#046180"/><stop offset="0.04" stop-color="#049385"/><stop offset="0.25" stop-color="#9acb5a"/><stop offset="0.51" stop-color="#ffc32c"/><stop offset="0.61" stop-color="#ffd529"/><stop offset="0.73" stop-color="#7ec142"/><stop offset="1" stop-color="#6dbd45"/></linearGradient><linearGradient id="linear-gradient-2" x1="-0.05" y1="17.87" x2="29.51" y2="34.93" gradientUnits="userSpaceOnUse"><stop offset="0" stop-color="#0498a9"/><stop offset="0.15" stop-color="#20c1e5"/><stop offset="0.3" stop-color="#9acb5a"/><stop offset="0.58" stop-color="#fcbf10"/><stop offset="0.81" stop-color="#a83a94"/><stop offset="1" stop-color="#3c0b35"/></linearGradient><linearGradient id="linear-gradient-3" x1="34.25" y1="46.72" x2="34.25" y2="12.48" gradientUnits="userSpaceOnUse"><stop offset="0" stop-color="#0498a9"/><stop offset="0.19" stop-color="#9acb5a"/><stop offset="0.42" stop-color="#fcbf10"/><stop offset="0.66" stop-color="#ad4c9b"/><stop offset="1" stop-color="#e50f8c"/></linearGradient></defs><title>logov</title><g class="cls-1"><g id="Layer_1" data-name="Layer 1"><path class="cls-2" d="M28.56,42.85c-1.14-3.62,5.29-18.58,5.28-23.78s-2-8.15-4.53-9.39a4.53,4.53,0,0,0,2.6-4.9,4.64,4.64,0,0,0-5.37-3.7,4.52,4.52,0,0,0-1.78,8.27,7,7,0,0,0-4.08,3.8c-2.29,4.87-.92,10.63-5.81,7.43.43,1.63,6.22,5.31,8.58,1.42.54-.89,1-1.82,1.58-2.69,5-7.33-.54,20,1.06,25.51,1.68,5.8,10.66-1,9.68-11.12C35.86,39.22,29.88,47.05,28.56,42.85Z" transform="translate(-2 -1)"/><path class="cls-3" d="M26.78,10a5.79,5.79,0,0,0-5.25,3.52c-1,2.18-1.47,6.89-2.78,8.22a2.64,2.64,0,0,0,3.89-.22c.75-1.24,2.32-4.85,4.13-4.32.92.27,1.16,1.32,1.27,2.14.46,3.63-.33,9-.67,12.65-.24,2.54-.48,5.09-.59,7.64,0,1-.07,2,0,3S26.9,45.55,28,46s2.62-.77,3.35-1.5c-4.68,2.91-3.8-4.6-3.29-6.79.59-2.51,1.37-5,2.12-7.49a82.23,82.23,0,0,0,2.47-9.12,11.4,11.4,0,0,0,.22-2C32.88,13.56,30,10,26.78,10Z" transform="translate(-2 -1)"/><path class="cls-4" d="M27.14,19.78c.25,2.88-.44,8.92-.92,14.45,1-1.74,3.45-7.76,5.95-7.29a34,34,0,0,0,1.67-7.87q0-.55,0-1.07A8.7,8.7,0,0,0,27.14,19.78Z" transform="translate(-2 -1)"/><path class="cls-5" d="M25,24a6.57,6.57,0,0,0-2.24,3.15c-1,2.54-2,6.39-2.59,7.17-3.2,4.08-10-10.5-3.44-7.39C20.18,28.55,22,24.27,23.45,22c-2.65,3.59-6.74-.42-9.83-2.21a6.2,6.2,0,0,0-3.12-.92,4.74,4.74,0,0,0,1.25-4.11,4.9,4.9,0,0,0-5.68-3.92,4.82,4.82,0,0,0-4,5.56,4.89,4.89,0,0,0,5,4A4,4,0,0,0,6,22.55c-.33,2.83,1.54,7.08,2.51,9,3,5.89,10.57,11.85,15.36,5,3.56-5.09,5.36-13.15,10.24-9.57C33.13,23.76,28,22,25,24Z" transform="translate(-2 -1)"/><path class="cls-3" d="M10.26,17.24a3.7,3.7,0,0,0-4-5.29,3.69,3.69,0,0,0-3.06,4.25,3.74,3.74,0,0,0,3.79,3A3.38,3.38,0,0,0,10.26,17.24Z" transform="translate(-2 -1)"/><path class="cls-3" d="M23.81,27.54c-.68,1.74-1.19,3.56-1.79,5.33-.5,1.45-1.08,3.07-2.9,3.28A3.85,3.85,0,0,1,16.17,35c-1.9-1.73-4.83-7.05-2.58-9,1-.91,2.49-.53,3.61,0,1.47.7,2.42-.22,3.27-1.34A10.86,10.86,0,0,1,15.7,22.5c-.88-.58-1.75-1.21-2.67-1.74-2.17-1.26-5.65-.4-5.91,1.92S8.44,28.92,9.52,31c1.62,3.18,5.56,7.67,9.43,7.43,2.84-.18,4.37-3,5.57-5.23.9-1.65,1.73-3.39,2.75-5,.87-1.34,2-2.81,3.69-3.2C27.8,23.34,25.07,24.31,23.81,27.54Z" transform="translate(-2 -1)"/><path class="cls-6" d="M39.27,12.56a5.24,5.24,0,0,0-4.35,6,5.19,5.19,0,0,0,.14.58c-3.8-1.54-8.83.38-12.09,7.38,2.31-4.39,6.54-3.89,9.38-1.57,6.19,5,2.86,18.22-2.67,21.73,3.21-1.09,6.13-5.21,7.82-8.41,3.45-6.53,3.33-12,1.44-15.51a5.43,5.43,0,0,0,2.16.07,5.24,5.24,0,0,0,4.35-6A5.33,5.33,0,0,0,39.27,12.56Z" transform="translate(-2 -1)"/><path class="cls-3" d="M34.06,20c-2.6-.74-5.1.5-6.9,2.28l.24,0a8.57,8.57,0,0,1,7,3.34c2.89,3.64,2.79,9.11,1.54,13.37a22.2,22.2,0,0,0,3.22-9.57C39.4,25.38,38.31,21.16,34.06,20Z" transform="translate(-2 -1)"/><ellipse class="cls-7" cx="38.24" cy="16.67" rx="4.16" ry="4.07"/><ellipse class="cls-7" cx="25.42" cy="4.43" rx="3.46" ry="3.38"/></g></g></svg>